<svg xmlns="http://www.w3.org/2000/svg" viewBox="0 0 128 128" fill="none">
  <defs>
    <linearGradient id="d3-bg" x1="18" y1="6" x2="110" y2="122" gradientUnits="userSpaceOnUse">
      <stop stop-color="#0b1024" />
      <stop offset="1" stop-color="#060912" />
    </linearGradient>
    <linearGradient id="d3-line" x1="28" y1="92" x2="100" y2="34" gradientUnits="userSpaceOnUse">
      <stop stop-color="#22d3ee" />
      <stop offset="0.55" stop-color="#60a5fa" />
      <stop offset="1" stop-color="#6366f1" />
    </linearGradient>
  </defs>
  <rect width="128" height="128" rx="24" fill="url(#d3-bg)" />
  <path d="M64 26l36 20v42L64 108 28 88V46l36-20z" fill="#111936" stroke="url(#d3-line)" stroke-width="2.4" />
  <path d="M64 46l22 12v26L64 96 42 84V58l22-12z" fill="#17355f" stroke="#67e8f9" stroke-opacity="0.42" />
  <path d="M64 26v20m36 0-36 20-36-20m36 62V66" stroke="#8be9ff" stroke-opacity="0.38" stroke-width="2" />
  <circle cx="64" cy="66" r="10" fill="#67e8f9" fill-opacity="0.2" />
  <path d="M58 66l6-4 6 4v6l-6 4-6-4v-6z" fill="#d8f7ff" />
</svg>
