<svg xmlns="http://www.w3.org/2000/svg" viewBox="0 0 128 128" fill="none">
  <defs>
    <linearGradient id="cr-bg" x1="14" y1="10" x2="114" y2="122" gradientUnits="userSpaceOnUse">
      <stop stop-color="#2a200f" />
      <stop offset="1" stop-color="#171108" />
    </linearGradient>
    <linearGradient id="cr-line" x1="64" y1="20" x2="64" y2="108" gradientUnits="userSpaceOnUse">
      <stop stop-color="#fbbf24" />
      <stop offset="1" stop-color="#b45309" />
    </linearGradient>
  </defs>
  <rect width="128" height="128" rx="24" fill="url(#cr-bg)" />
  <path d="M26 90V56l22-12 16 10 16-10 22 12v34H26z" fill="#2b2318" stroke="url(#cr-line)" stroke-width="2.3" />
  <path d="M44 56l20-14 20 14" stroke="#d97706" stroke-width="3" stroke-linecap="round" stroke-linejoin="round" />
  <rect x="56" y="72" width="16" height="18" rx="2" fill="#564130" />
  <circle cx="64" cy="46" r="9" fill="#155e75" stroke="#67e8f9" stroke-width="2" />
  <circle cx="61" cy="44" r="1.8" fill="#e0fbff" />
  <circle cx="67" cy="44" r="1.8" fill="#e0fbff" />
  <path d="M61 49h6" stroke="#b6f5ff" stroke-width="1.8" stroke-linecap="round" />
  <path d="M24 44c8-8 18-12 28-10s18 10 20 20" stroke="#86efac" stroke-width="3" stroke-linecap="round" opacity="0.85" />
  <circle cx="34" cy="38" r="6" fill="#bbf7d0" />
  <circle cx="34" cy="38" r="3" fill="#166534" />
</svg>
